PathFileType	4	(X/Y/Z)	/home/nbianco/projects/addbio/data/OpenCap2022/Processed/subject5//results/MarkerData/DJ3.trc
DataRate	CameraRate	NumFrames	NumMarkers	Units	OrigDataRate	OrigDataStartFrame	OrigNumFrames
100	100	8	51	m	100	0	139
Frame#	Time	C7			L.ASIS			L.PSIS			L_5meta			L_HJC			L_HJC_reg			L_Shoulder			L_Sternum			L_ankle			L_calc			L_elbow_lat			L_elbow_med			L_forearm			L_humerus			L_knee			L_sh2			L_sh3			L_shank_antsup			L_thigh1			L_thigh2			L_thigh3			L_thigh4			L_toe			L_wrist_radius			L_wrist_ulna			R_HJC			R_HJC_reg			R_Shoulder			R_Sternum			R_elbow_lat			R_elbow_med			R_forearm			R_humerus			R_wrist_radius			R_wrist_ulna			r.ASIS			r.PSIS			r_5meta			r_ankle			r_calc			r_knee			r_sh2			r_sh3			r_sh4			r_shank_antsup			r_thigh1			r_thigh2			r_thigh3			r_thigh4			r_thigh5			r_toe		
		X1	Y1	Z1	X2	Y2	Z2	X3	Y3	Z3	X4	Y4	Z4	X5	Y5	Z5	X6	Y6	Z6	X7	Y7	Z7	X8	Y8	Z8	X9	Y9	Z9	X10	Y10	Z10	X11	Y11	Z11	X12	Y12	Z12	X13	Y13	Z13	X14	Y14	Z14	X15	Y15	Z15	X16	Y16	Z16	X17	Y17	Z17	X18	Y18	Z18	X19	Y19	Z19	X20	Y20	Z20	X21	Y21	Z21	X22	Y22	Z22	X23	Y23	Z23	X24	Y24	Z24	X25	Y25	Z25	X26	Y26	Z26	X27	Y27	Z27	X28	Y28	Z28	X29	Y29	Z29	X30	Y30	Z30	X31	Y31	Z31	X32	Y32	Z32	X33	Y33	Z33	X34	Y34	Z34	X35	Y35	Z35	X36	Y36	Z36	X37	Y37	Z37	X38	Y38	Z38	X39	Y39	Z39	X40	Y40	Z40	X41	Y41	Z41	X42	Y42	Z42	X43	Y43	Z43	X44	Y44	Z44	X45	Y45	Z45	X46	Y46	Z46	X47	Y47	Z47	X48	Y48	Z48	X49	Y49	Z49	X50	Y50	Z50	X51	Y51	Z51

1	1.31	-0.551616	1.68467	-0.56286	-0.394743	1.13197	-0.684677	-0.576717	1.17001	-0.593504	-0.185196	0.0482751	-0.770082	-0.472692	1.05298	-0.655844	-0.465515	1.05518	-0.625969	-0.500518	1.65755	-0.68795	-0.410676	1.59387	-0.576264	-0.300841	0.1845	-0.74788	-0.366336	0.168414	-0.691633	-0.553284	1.50561	-0.99105	-0.562569	1.42681	-0.964476	-0.394029	1.54312	-0.954431	-0.53998	1.55997	-0.912625	-0.348981	0.629165	-0.736858	-0.39424	0.514174	-0.753677	-0.374781	0.395052	-0.759206	-0.304461	0.518578	-0.763881	-0.382101	0.96031	-0.745616	-0.331376	0.831756	-0.755043	-0.490124	0.914377	-0.728538	-0.43222	0.787937	-0.744221	-0.142547	0.0833737	-0.723048	-0.31276	1.55966	-0.898551	-0.300302	1.55435	-0.93593	-0.459004	1.05274	-0.425884	-0.452192	1.05792	-0.453394	-0.527582	1.67423	-0.425126	-0.409415	1.60095	-0.513485	-0.609415	1.56387	-0.101282	-0.593599	1.47399	-0.126424	-0.475946	1.61436	-0.161505	-0.59611	1.60321	-0.187137	-0.379227	1.63368	-0.226316	-0.381851	1.6362	-0.187886	-0.37684	1.13155	-0.423001	-0.568607	1.17167	-0.488471	-0.184942	0.0567762	-0.376741	-0.294177	0.186287	-0.395103	-0.356136	0.167698	-0.452379	-0.334999	0.624178	-0.386694	-0.291381	0.4347	-0.361677	-0.378557	0.539103	-0.364625	-0.372569	0.423072	-0.369071	-0.302665	0.547666	-0.36974	-0.363625	0.95367	-0.362258	-0.319028	0.85261	-0.367502	-0.359525	0.805559	-0.344404	-0.466102	0.903096	-0.365765	-0.412327	0.798801	-0.360847	-0.137512	0.0852673	-0.423289
2	1.32	-0.541857	1.65807	-0.563559	-0.384462	1.10821	-0.684483	-0.565819	1.14365	-0.59248	-0.184867	0.0330842	-0.769811	-0.460761	1.02808	-0.655237	-0.453312	1.03071	-0.625543	-0.490901	1.63035	-0.689531	-0.400849	1.56786	-0.577601	-0.296737	0.161606	-0.74734	-0.365603	0.147693	-0.693138	-0.552076	1.47166	-0.987995	-0.559383	1.39402	-0.958102	-0.393272	1.51034	-0.952293	-0.537737	1.52821	-0.910696	-0.324967	0.607139	-0.738712	-0.372265	0.494373	-0.757847	-0.357797	0.374564	-0.761802	-0.282035	0.494854	-0.764016	-0.367085	0.93747	-0.745126	-0.3118	0.810694	-0.755474	-0.473542	0.887957	-0.729304	-0.411337	0.763493	-0.745204	-0.147901	0.0646645	-0.71549	-0.311516	1.52774	-0.897575	-0.299464	1.52276	-0.935278	-0.445853	1.02886	-0.425354	-0.439601	1.03411	-0.453455	-0.518257	1.64732	-0.425738	-0.399301	1.57515	-0.514483	-0.606963	1.52995	-0.105661	-0.587003	1.441	-0.13086	-0.474926	1.58601	-0.164632	-0.593731	1.57117	-0.191005	-0.37883	1.60938	-0.228468	-0.382115	1.61233	-0.189589	-0.365367	1.10907	-0.423568	-0.557484	1.14572	-0.487885	-0.183787	0.0385377	-0.37629	-0.287403	0.165298	-0.391996	-0.352459	0.151199	-0.447978	-0.308701	0.604057	-0.384018	-0.269364	0.413224	-0.358082	-0.354096	0.520412	-0.36077	-0.351363	0.403895	-0.364635	-0.277689	0.526552	-0.366492	-0.347791	0.931596	-0.360683	-0.300081	0.832158	-0.365629	-0.338741	0.783958	-0.342091	-0.448699	0.877765	-0.362643	-0.391545	0.77544	-0.357347	-0.141118	0.0664395	-0.428053
3	1.33	-0.532496	1.63147	-0.564205	-0.374433	1.08321	-0.683971	-0.555865	1.1162	-0.591911	-0.186032	0.0282434	-0.770472	-0.4493	1.002	-0.65446	-0.441285	1.00507	-0.625101	-0.480952	1.60278	-0.691575	-0.391212	1.54158	-0.578619	-0.303521	0.141364	-0.743847	-0.373874	0.122089	-0.691225	-0.55015	1.43616	-0.984846	-0.555693	1.35933	-0.951538	-0.391429	1.47584	-0.950103	-0.53444	1.49466	-0.908768	-0.298658	0.585698	-0.740752	-0.350578	0.477722	-0.762566	-0.345367	0.357449	-0.764181	-0.26065	0.471033	-0.76418	-0.351864	0.913942	-0.74507	-0.292021	0.789239	-0.756109	-0.456579	0.860545	-0.730085	-0.389888	0.73865	-0.746475	-0.154025	0.0567049	-0.710881	-0.309149	1.49432	-0.896854	-0.297552	1.4894	-0.934572	-0.433725	1.00401	-0.424626	-0.427852	1.00905	-0.453425	-0.508639	1.62049	-0.424756	-0.389353	1.54914	-0.515715	-0.602875	1.49398	-0.109914	-0.578768	1.40626	-0.135305	-0.472685	1.55549	-0.167872	-0.589785	1.53725	-0.194578	-0.377271	1.58283	-0.23092	-0.381173	1.58618	-0.191558	-0.354497	1.08558	-0.423761	-0.547676	1.11863	-0.487238	-0.185018	0.0314162	-0.375274	-0.292221	0.146302	-0.391728	-0.359014	0.129418	-0.445593	-0.280777	0.58396	-0.38174	-0.250751	0.391892	-0.356388	-0.328352	0.504182	-0.355896	-0.33311	0.388195	-0.359159	-0.251994	0.505287	-0.363943	-0.332	0.908998	-0.358626	-0.281084	0.811209	-0.363486	-0.318149	0.761966	-0.339575	-0.431086	0.851854	-0.360715	-0.370513	0.751703	-0.354955	-0.146637	0.0591786	-0.431375
4	1.34	-0.523447	1.60575	-0.564999	-0.36484	1.05698	-0.6831	-0.547194	1.08795	-0.591576	-0.187529	0.0290035	-0.771155	-0.43865	0.97487	-0.65349	-0.429957	0.978378	-0.624381	-0.470929	1.5757	-0.694269	-0.38188	1.51572	-0.579294	-0.315493	0.125383	-0.738199	-0.38618	0.0958323	-0.686401	-0.54746	1.39949	-0.981439	-0.551366	1.32335	-0.944716	-0.388414	1.4399	-0.948036	-0.530027	1.45927	-0.907049	-0.271058	0.565876	-0.742511	-0.329836	0.464055	-0.766558	-0.336114	0.343682	-0.765512	-0.240947	0.448555	-0.764208	-0.33692	0.891093	-0.745259	-0.272382	0.768871	-0.75662	-0.439661	0.833443	-0.730943	-0.368185	0.714658	-0.74829	-0.158088	0.0553749	-0.708777	-0.305499	1.4596	-0.89638	-0.294518	1.45452	-0.934133	-0.422977	0.978303	-0.42368	-0.417086	0.982947	-0.453046	-0.499058	1.59432	-0.422585	-0.379573	1.5237	-0.517042	-0.597064	1.45622	-0.114171	-0.569024	1.37001	-0.140336	-0.469353	1.52299	-0.171075	-0.584125	1.50173	-0.197459	-0.374523	1.55455	-0.233392	-0.379106	1.55817	-0.193871	-0.344376	1.06107	-0.423512	-0.539328	1.09074	-0.486849	-0.187366	0.0313795	-0.374511	-0.303792	0.130416	-0.394279	-0.37152	0.104536	-0.446647	-0.25219	0.565011	-0.3804	-0.236458	0.37156	-0.357811	-0.302778	0.490457	-0.351246	-0.318338	0.375888	-0.354172	-0.227239	0.484595	-0.363287	-0.316548	0.887251	-0.356535	-0.262374	0.791302	-0.36168	-0.29776	0.740989	-0.337177	-0.413599	0.826693	-0.359356	-0.349542	0.728709	-0.353271	-0.151295	0.0589019	-0.43321
5	1.35	-0.514294	1.58229	-0.566065	-0.35594	1.02991	-0.681721	-0.53989	1.06063	-0.590924	-0.188397	0.0304242	-0.770933	-0.429635	0.94759	-0.652114	-0.420416	0.951579	-0.622873	-0.461516	1.55052	-0.697827	-0.372914	1.49122	-0.579942	-0.323387	0.114708	-0.731936	-0.395061	0.0760218	-0.680475	-0.543959	1.36227	-0.977206	-0.546069	1.28733	-0.937019	-0.38412	1.40305	-0.946169	-0.524524	1.42239	-0.905601	-0.246055	0.548718	-0.743377	-0.310685	0.452162	-0.768371	-0.326381	0.332162	-0.764901	-0.223097	0.429793	-0.763469	-0.323282	0.870866	-0.745086	-0.254035	0.751284	-0.756033	-0.423905	0.808939	-0.732043	-0.347659	0.693472	-0.750519	-0.158721	0.0554955	-0.707446	-0.30032	1.42403	-0.896191	-0.290161	1.41855	-0.93425	-0.414277	0.952786	-0.422319	-0.407672	0.956815	-0.451916	-0.490242	1.56965	-0.419766	-0.370081	1.49961	-0.518432	-0.589564	1.41736	-0.118911	-0.557973	1.33298	-0.146681	-0.464695	1.48918	-0.174031	-0.576685	1.46507	-0.199407	-0.370468	1.52534	-0.235453	-0.375317	1.5287	-0.19559	-0.335185	1.03604	-0.422759	-0.532149	1.06381	-0.487047	-0.189197	0.0332132	-0.375015	-0.313357	0.11811	-0.398911	-0.382425	0.081823	-0.451602	-0.227356	0.548346	-0.380695	-0.224801	0.353534	-0.361893	-0.280386	0.477792	-0.348996	-0.305699	0.364733	-0.352065	-0.206196	0.465782	-0.365626	-0.302359	0.867657	-0.355231	-0.245501	0.773505	-0.361136	-0.278965	0.722147	-0.335581	-0.397554	0.804108	-0.357469	-0.330492	0.707843	-0.351612	-0.1532	0.0593984	-0.434804
6	1.36	-0.504621	1.56199	-0.567248	-0.34799	1.00353	-0.679814	-0.533543	1.03731	-0.589748	-0.188767	0.0312944	-0.769928	-0.423191	0.922352	-0.650153	-0.413637	0.926777	-0.62049	-0.453378	1.52813	-0.702261	-0.364183	1.46877	-0.580786	-0.324524	0.108772	-0.726249	-0.398107	0.0657516	-0.675458	-0.539587	1.32559	-0.971634	-0.539637	1.25236	-0.927917	-0.378385	1.3661	-0.944334	-0.518071	1.38559	-0.903834	-0.226479	0.534631	-0.743196	-0.29347	0.442088	-0.767629	-0.314833	0.322921	-0.762331	-0.206998	0.416182	-0.76191	-0.311837	0.854059	-0.744387	-0.238275	0.736879	-0.75412	-0.410342	0.788429	-0.732713	-0.329971	0.676051	-0.751874	-0.157629	0.0550833	-0.705984	-0.293417	1.38823	-0.896364	-0.284244	1.38185	-0.934721	-0.408258	0.929477	-0.420383	-0.400494	0.932804	-0.450036	-0.482083	1.54721	-0.416549	-0.361009	1.47724	-0.52013	-0.58068	1.37846	-0.124782	-0.545887	1.29635	-0.15481	-0.458355	1.45516	-0.17678	-0.56764	1.42819	-0.201078	-0.364803	1.4961	-0.236657	-0.368865	1.49801	-0.195309	-0.327294	1.01181	-0.421585	-0.525637	1.04094	-0.487177	-0.190184	0.0348523	-0.376698	-0.317499	0.108829	-0.404869	-0.388157	0.0656434	-0.458331	-0.210787	0.533482	-0.382664	-0.214482	0.337885	-0.3671	-0.26368	0.464578	-0.350596	-0.294737	0.352636	-0.354589	-0.190677	0.448961	-0.370083	-0.290412	0.850053	-0.35492	-0.232076	0.75714	-0.361871	-0.263896	0.704972	-0.33548	-0.384402	0.784645	-0.35526	-0.315439	0.689399	-0.350641	-0.153292	0.0586123	-0.436883
7	1.37	-0.494402	1.5448	-0.568327	-0.341308	0.980688	-0.677636	-0.527798	1.0197	-0.588541	-0.189047	0.031977	-0.768993	-0.419195	0.901632	-0.647959	-0.40942	0.906324	-0.617859	-0.446322	1.50841	-0.707199	-0.355477	1.44891	-0.581707	-0.323296	0.106577	-0.722124	-0.398098	0.0624821	-0.672463	-0.534211	1.29101	-0.964595	-0.532117	1.21926	-0.917479	-0.371056	1.32995	-0.942216	-0.511087	1.3517	-0.900775	-0.209883	0.523914	-0.742169	-0.278138	0.435852	-0.764981	-0.303901	0.317925	-0.758844	-0.192807	0.407268	-0.760307	-0.302782	0.840026	-0.743556	-0.225273	0.725266	-0.752018	-0.399066	0.771224	-0.731603	-0.315089	0.661734	-0.750951	-0.156895	0.0545771	-0.704948	-0.284758	1.35267	-0.896799	-0.276713	1.34479	-0.935172	-0.404672	0.910161	-0.418207	-0.396102	0.913254	-0.448061	-0.473107	1.52719	-0.41315	-0.352231	1.45711	-0.522203	-0.570883	1.34072	-0.132149	-0.533256	1.26126	-0.165064	-0.450317	1.42195	-0.179511	-0.557426	1.39289	-0.203869	-0.35724	1.46763	-0.236733	-0.359751	1.46665	-0.193099	-0.321293	0.990465	-0.420324	-0.519775	1.02388	-0.486211	-0.190888	0.0362599	-0.378429	-0.318885	0.102695	-0.410907	-0.390228	0.0571795	-0.463449	-0.200806	0.519468	-0.386149	-0.207002	0.324304	-0.373128	-0.252202	0.451984	-0.355864	-0.28698	0.341244	-0.361244	-0.179808	0.433895	-0.374661	-0.280971	0.833921	-0.355023	-0.221707	0.741846	-0.363464	-0.252547	0.689048	-0.337372	-0.374169	0.767459	-0.354438	-0.303923	0.672989	-0.352015	-0.153194	0.0578203	-0.438703
8	1.38	-0.48396	1.53012	-0.569253	-0.336233	0.963703	-0.675555	-0.522859	1.00636	-0.587719	-0.189223	0.0323209	-0.768667	-0.416242	0.886227	-0.646226	-0.406526	0.891037	-0.615624	-0.439207	1.49096	-0.711838	-0.346654	1.43216	-0.582664	-0.322751	0.107141	-0.720386	-0.39764	0.06266	-0.671656	-0.527726	1.25987	-0.956308	-0.52395	1.18922	-0.906159	-0.36218	1.29534	-0.939628	-0.504417	1.32291	-0.896096	-0.192435	0.516969	-0.740501	-0.2641	0.434157	-0.761841	-0.295084	0.317711	-0.756032	-0.180303	0.401585	-0.758823	-0.295813	0.827929	-0.742601	-0.21426	0.716101	-0.750368	-0.38957	0.755903	-0.728568	-0.301792	0.649514	-0.748034	-0.157027	0.0544068	-0.704864	-0.274505	1.31752	-0.897195	-0.267704	1.30779	-0.935533	-0.402262	0.895075	-0.416452	-0.39369	0.898913	-0.446568	-0.462026	1.50943	-0.409907	-0.343425	1.44002	-0.524281	-0.560619	1.30526	-0.140867	-0.520756	1.22845	-0.177573	-0.440689	1.39021	-0.182067	-0.546634	1.36095	-0.208713	-0.347668	1.44033	-0.235624	-0.348959	1.43552	-0.190568	-0.317487	0.97364	-0.419271	-0.515021	1.01118	-0.484399	-0.191371	0.037197	-0.379371	-0.319233	0.100523	-0.414949	-0.390659	0.0550412	-0.465299	-0.190305	0.507961	-0.391514	-0.201572	0.314759	-0.379131	-0.242437	0.443845	-0.36326	-0.281145	0.3346	-0.368984	-0.170242	0.42289	-0.378799	-0.273541	0.819966	-0.355402	-0.212399	0.729241	-0.366326	-0.242334	0.675657	-0.341333	-0.365468	0.751972	-0.356051	-0.293225	0.658881	-0.356143	-0.153235	0.0576743	-0.439653
